<svg width="292" height="277" viewBox="0 0 292 277" fill="none" xmlns="http://www.w3.org/2000/svg">
<g filter="url(#filter0_f_136_10127)">
<path fill-rule="evenodd" clip-rule="evenodd" d="M232.92 90.8939C215.152 49.8439 168.445 32.0816 124.012 37.2798C80.0479 42.423 39.8027 70.8517 31.9439 114.406C24.5109 155.6 55.7588 190.796 92.7876 210.329C126.111 227.908 165.844 224.603 194.517 200.165C227.005 172.476 249.876 130.066 232.92 90.8939Z" fill="url(#paint0_linear_136_10127)"/>
</g>
<g filter="url(#filter1_f_136_10127)">
<path fill-rule="evenodd" clip-rule="evenodd" d="M259.585 212.178C254.949 201.467 242.761 196.832 231.167 198.188C219.695 199.531 209.194 206.949 207.143 218.314C205.204 229.063 213.357 238.247 223.019 243.344C231.715 247.931 242.083 247.068 249.565 240.692C258.042 233.466 264.01 222.4 259.585 212.178Z" fill="url(#paint1_linear_136_10127)"/>
</g>
<defs>
<filter id="filter0_f_136_10127" x="0.721521" y="6.27719" width="268.067" height="245.251" filterUnits="userSpaceOnUse" color-interpolation-filters="sRGB">
<feFlood flood-opacity="0" result="BackgroundImageFix"/>
<feBlend mode="normal" in="SourceGraphic" in2="BackgroundImageFix" result="shape"/>
<feGaussianBlur stdDeviation="15.0601" result="effect1_foregroundBlur_136_10127"/>
</filter>
<filter id="filter1_f_136_10127" x="176.735" y="167.838" width="114.47" height="108.516" filterUnits="userSpaceOnUse" color-interpolation-filters="sRGB">
<feFlood flood-opacity="0" result="BackgroundImageFix"/>
<feBlend mode="normal" in="SourceGraphic" in2="BackgroundImageFix" result="shape"/>
<feGaussianBlur stdDeviation="15.0601" result="effect1_foregroundBlur_136_10127"/>
</filter>
<linearGradient id="paint0_linear_136_10127" x1="230.259" y1="85.0161" x2="43.7516" y2="170.006" gradientUnits="userSpaceOnUse">
<stop stop-color="#3A72E8"/>
<stop offset="1" stop-color="#89C02E"/>
</linearGradient>
<linearGradient id="paint1_linear_136_10127" x1="258.891" y1="210.645" x2="210.224" y2="232.822" gradientUnits="userSpaceOnUse">
<stop stop-color="#89C02E"/>
<stop offset="1" stop-color="#3A72E8"/>
</linearGradient>
</defs>
</svg>
