<svg width="361" height="218" viewBox="0 0 361 218" fill="none" xmlns="http://www.w3.org/2000/svg">
<path fill-rule="evenodd" clip-rule="evenodd" d="M212.35 174.937C209.645 178.532 203.811 183.597 203.482 183.282C203.153 182.965 201.606 175.852 200.815 168.798C199.038 152.954 195.97 148.116 188.812 144.441C182.812 141.36 178.436 141.953 171.548 146.265C176.123 135.328 178.956 123.061 181.441 110.074C185.326 89.7795 185.373 72.0491 181.583 56.883C177.831 41.5199 170.855 29.3424 160.654 20.3504C150.491 11.1614 137.83 5.18821 122.672 2.43074C104.482 -0.87823 86.9464 1.13136 70.0665 8.45951C53.4264 15.6274 39.146 27.4044 27.2252 43.7905C15.3044 60.1766 7.17548 79.6993 2.83838 102.358C-1.08387 122.85 -0.941113 141.227 3.26665 157.488C7.47441 173.75 14.8875 186.925 25.5058 197.012C36.3639 206.939 49.5744 213.318 65.1373 216.149C81.7107 219.164 102.254 216.853 118.325 209.378C137.335 200.743 151.359 191.855 170.178 179.115C175.97 175.193 175.982 175.722 177.131 184.456C178 191.064 180.264 198.107 183.635 201.56C193.93 211.525 209.014 206.892 219.612 199.571C226.781 194.619 232.378 187.747 237.651 181.015C239.009 188.108 240.982 195.706 246.299 201.048C260.034 217.268 280.982 202.631 290.687 190.287C294.612 185.294 295.631 183.282 295.631 183.282C299.843 191.392 304.378 197.571 311.453 203.654C321.333 212.149 338.313 206.564 349.557 194.785C361.929 181.824 363.55 169.115 356.281 162.23C351.096 157.319 342.248 159.883 335.388 171.16C327.323 184.419 323.836 184.833 319.874 175.107C312.056 155.913 316.81 134.146 317.74 112.968C318.05 105.922 313.222 100.198 305.987 100.198C299.834 100.198 294.671 104.335 293.266 109.912C289.609 124.094 282.533 181.015 264.257 181.015C250.95 181.015 267.186 129.201 267.186 114.251C267.186 106.439 261.962 99.6676 253.949 99.6676C247.608 99.6676 241.143 103.194 238.978 109.912C224.023 156.309 221.664 162.555 212.35 174.937ZM80.7357 33.0329C92.5521 27.0265 104.625 25.1447 116.954 27.3874C131.506 30.0346 142.053 37.7642 148.594 50.5762C155.375 63.228 156.578 80.9819 152.203 103.838C151.242 108.861 150.14 113.683 148.898 118.306C129.988 105.078 97.7405 108.461 78.6364 129.668C62.9494 149.119 60.6175 173.875 69.8388 191.006C54.6862 188.136 43.4798 179.675 36.2196 165.624C28.9318 151.249 27.5696 132.14 32.1329 108.299C35.6026 90.1717 41.607 74.6463 50.146 61.723C58.9248 48.6394 69.1214 39.076 80.7357 33.0329ZM133.172 155.734C124.482 169.446 114.551 179.261 103.379 185.181C101.739 186.071 100.098 186.872 98.4548 187.584C97.5101 187.031 96.5983 186.382 95.7255 185.635C85.4074 176.801 84.7573 158.585 95.7255 144.986C107.017 132.451 126.48 130.997 136.798 139.831C138.027 140.883 139.071 142.034 139.937 143.266C137.868 147.687 135.614 151.843 133.172 155.734Z" fill="white"/>
</svg>
