<svg width="24" height="24" viewBox="0 0 24 24" fill="none" xmlns="http://www.w3.org/2000/svg">
<circle cx="12" cy="12" r="8" fill="white" stroke="#262626" stroke-width="2"/>
<path d="M12.8271 9.60352V17H11.1729V9.60352H12.8271ZM11.0635 7.66211C11.0635 7.41146 11.1455 7.2041 11.3096 7.04004C11.4782 6.87142 11.7106 6.78711 12.0068 6.78711C12.2985 6.78711 12.5286 6.87142 12.6973 7.04004C12.8659 7.2041 12.9502 7.41146 12.9502 7.66211C12.9502 7.9082 12.8659 8.11328 12.6973 8.27734C12.5286 8.44141 12.2985 8.52344 12.0068 8.52344C11.7106 8.52344 11.4782 8.44141 11.3096 8.27734C11.1455 8.11328 11.0635 7.9082 11.0635 7.66211Z" fill="#262626"/>
</svg>
